<svg id="coffee-grains" xmlns="http://www.w3.org/2000/svg" width="32.775" height="24.114" viewBox="0 0 32.775 24.114">
  <path id="Path_1" data-name="Path 1" d="M345.736,184.612a11.982,11.982,0,0,0-5.111-3.11,12.642,12.642,0,0,1-.251,1.931c-.07.335-.153.676-.251,1.011a10.041,10.041,0,0,1,1.764,3.472,9.747,9.747,0,0,0,1.381,3.1,8.032,8.032,0,0,0,.718.816,16.6,16.6,0,0,0,2.552,2.036,6.876,6.876,0,0,0,1.834.948.48.48,0,0,1,.056.021C350.059,192.2,348.992,187.868,345.736,184.612Z" transform="translate(-316.407 -173.177)" fill="#fff"/>
  <path id="Path_2" data-name="Path 2" d="M281.755,262.479a13.075,13.075,0,0,1-1.562-.886,18.425,18.425,0,0,1-2.852-2.28,9.727,9.727,0,0,1-.885-1,11.367,11.367,0,0,1-1.66-3.64,10.879,10.879,0,0,0-.809-1.966,19.1,19.1,0,0,1-3.974,5.718c-.063.063-.126.119-.188.181a13.3,13.3,0,0,0,1.283,1.485C274.545,263.517,279.168,264.515,281.755,262.479Z" transform="translate(-251.011 -239.413)" fill="#fff"/>
  <path id="Path_3" data-name="Path 3" d="M1.1,81.961a.389.389,0,0,1,.084-.028,10.4,10.4,0,0,0,2.657-1.381,24.29,24.29,0,0,0,3.7-2.963,12.612,12.612,0,0,0,1.046-1.178,14.362,14.362,0,0,0,2-4.511,14.039,14.039,0,0,1,2.935-5.48c.07-.077.153-.167.244-.265a10.857,10.857,0,0,1,4.2-2.364c.572-.223,1.123-.446,1.666-.718a8.038,8.038,0,0,0-3.967-.969c-3.424,0-7.419,1.743-10.675,5C.267,71.837-1.274,78.119,1.1,81.961Z" transform="translate(0 -62.103)" fill="#fff"/>
  <path id="Path_4" data-name="Path 4" d="M62.193,111.622a14.915,14.915,0,0,0,.628-1.91,11.724,11.724,0,0,0,.356-2.447A7.725,7.725,0,0,0,61.5,101.9a16.334,16.334,0,0,1-2.873,1.36,8.387,8.387,0,0,0-3.256,1.75c-.042.042-.091.1-.153.167a11.416,11.416,0,0,0-2.378,4.518,16.33,16.33,0,0,1-2.413,5.285,14.521,14.521,0,0,1-1.29,1.457,26.147,26.147,0,0,1-4.142,3.312,20.177,20.177,0,0,1-2.266,1.29,7.624,7.624,0,0,0,4.79,1.52c3.4,0,7.349-1.715,10.591-4.923a.827.827,0,0,1,.084-.077A18.2,18.2,0,0,0,62.193,111.622Z" transform="translate(-39.746 -99.127)" fill="#fff"/>
</svg>
